<?xml version="1.0" standalone="no"?>
<!DOCTYPE svg PUBLIC "-//W3C//DTD SVG 20010904//EN"
 "http://www.w3.org/TR/2001/REC-SVG-20010904/DTD/svg10.dtd">
<svg version="1.0" xmlns="http://www.w3.org/2000/svg"
 width="512.000000pt" height="512.000000pt" viewBox="0 0 512.000000 512.000000"
 preserveAspectRatio="xMidYMid meet">
<metadata>
Created by potrace 1.14, written by Peter Selinger 2001-2017
</metadata>
<g transform="translate(0.000000,512.000000) scale(0.100000,-0.100000)"
fill="#000000" stroke="none">
<path d="M1255 4785 c-253 -47 -382 -171 -441 -426 -5 -19 -9 -855 -10 -1859
-2 -1866 -3 -1825 29 -1965 11 -44 46 -122 77 -166 61 -89 168 -152 335 -196
17 -4 640 -8 1385 -10 1415 -2 1399 -3 1515 39 124 44 218 150 256 291 14 52
12 168 -3 222 -6 22 -12 42 -13 45 0 3 -12 27 -25 54 -52 103 -168 185 -301
211 -9 2 -34 6 -55 10 -22 3 -510 6 -1086 6 l-1048 0 0 32 c-1 44 -1 1004 -1
1047 l1 35 948 1 c842 1 954 3 1015 17 171 42 271 136 312 294 29 109 21 200
-26 299 -47 101 -144 180 -254 208 -16 4 -39 11 -50 14 -11 4 -452 8 -979 9
-528 2 -962 5 -964 8 -5 5 -5 926 1 931 2 2 464 4 1028 4 1109 1 1086 0 1207
55 206 94 290 351 187 570 -48 100 -130 166 -265 211 -52 18 -119 19 -1380 21
-1050 1 -1340 -1 -1395 -12z"/>
</g>
</svg>
